<svg xmlns="http://www.w3.org/2000/svg" xmlns:xlink="http://www.w3.org/1999/xlink" version="1.1" x="0px" y="0px" viewBox="0 0 100 125" style="enable-background:new 0 0 100 100;" xml:space="preserve"><g><path d="M93.4,50.4l-2-5.4c-1-2.8-3.7-4.6-6.6-4.6H73.3c-4.5,0-7.8-4.1-6.9-8.4l4.5-10.7c0.4-1.8,0-3.7-1-5.2   c-1.4-2.1-3.6-3.2-5.9-3.2c-1.7,0-3.4,0.6-4.7,1.8L30.6,40.4H7.8c-1.5,0-2.8,1.2-2.8,2.8v34c0,1.5,1.2,2.7,2.7,2.8h21.4h2.5   c0,0,19.4,6.4,22.6,6.4h20.3c2.7,0,5.2-1.6,6.4-4.1c3.2-6.9,9.6-20.7,12.2-26.6C93.9,53.9,94,52.1,93.4,50.4z M8.1,76.9V43.4h21.1   v33.5H8.1z M90.5,54.4c-2.5,5.7-8.7,19.1-12.1,26.5c-0.7,1.4-2.1,2.3-3.7,2.3H54.4c-1.8,0-12.7-3.3-21.7-6.2l-0.5-0.2h0V43l0.5-0.4   l28.6-25.7c1-0.9,2-1,2.7-1c1.4,0,2.7,0.7,3.4,1.9c0.5,0.8,0.7,1.8,0.6,2.7l-4.4,10.4L63.5,31l-0.1,0.3c-0.6,3,0.2,6,2.1,8.3   c1.9,2.3,4.8,3.7,7.8,3.7h11.5c1.7,0,3.2,1.1,3.8,2.7l2,5.4C90.9,52.4,90.9,53.4,90.5,54.4z"/></g></svg>